<?xml version="1.0" encoding="utf-8"?>
<!-- Generator: Adobe Illustrator 16.0.4, SVG Export Plug-In . SVG Version: 6.00 Build 0)  -->
<!DOCTYPE svg PUBLIC "-//W3C//DTD SVG 1.1//EN" "http://www.w3.org/Graphics/SVG/1.1/DTD/svg11.dtd">
<svg version="1.1" id="Layer_1" xmlns="http://www.w3.org/2000/svg" xmlns:xlink="http://www.w3.org/1999/xlink" x="0px" y="0px"
	 width="203.333px" height="113.333px" viewBox="0 0 203.333 113.333" enable-background="new 0 0 203.333 113.333"
	 xml:space="preserve">
<rect x="0.333" fill="#FFFFFF" width="96.666" height="113.667"/>
<g>
	<path d="M106.199,71.4h0.951v7.207h3.111v0.877h-4.062V71.4z"/>
	<path d="M114.949,78.092c0,0.504,0.021,0.996,0.074,1.393h-0.852l-0.076-0.732h-0.033c-0.291,0.457-0.854,0.863-1.598,0.863
		c-1.059,0-1.6-0.826-1.6-1.666c0-1.404,1.123-2.172,3.145-2.16V75.67c0-0.467-0.119-1.344-1.189-1.332
		c-0.496,0-1.004,0.156-1.371,0.432l-0.217-0.707c0.432-0.299,1.07-0.504,1.729-0.504c1.6,0,1.988,1.211,1.988,2.363V78.092z
		 M114.031,76.521c-1.037-0.023-2.215,0.18-2.215,1.307c0,0.697,0.41,1.008,0.885,1.008c0.691,0,1.135-0.479,1.285-0.971
		c0.033-0.121,0.045-0.24,0.045-0.336V76.521z"/>
	<path d="M116.48,70.969h0.939v3.646h0.021c0.336-0.648,0.941-1.057,1.783-1.057c1.307,0,2.215,1.199,2.215,2.951
		c0,2.074-1.188,3.105-2.355,3.105c-0.756,0-1.361-0.322-1.76-1.078h-0.021l-0.055,0.947h-0.811c0.021-0.396,0.043-0.984,0.043-1.5
		V70.969z M117.42,77.156c0,0.133,0.012,0.266,0.043,0.385c0.174,0.732,0.736,1.234,1.428,1.234c1.004,0,1.588-0.898,1.588-2.23
		c0-1.162-0.541-2.158-1.566-2.158c-0.639,0-1.242,0.504-1.438,1.295c-0.033,0.133-0.055,0.275-0.055,0.443V77.156z"/>
	<path d="M127.357,76.533c0,2.146-1.35,3.082-2.604,3.082c-1.404,0-2.506-1.15-2.506-2.986c0-1.93,1.156-3.07,2.594-3.07
		C126.342,73.559,127.357,74.77,127.357,76.533z M123.221,76.594c0,1.271,0.648,2.23,1.576,2.23c0.908,0,1.59-0.947,1.59-2.254
		c0-0.984-0.443-2.219-1.568-2.219C123.707,74.352,123.221,75.502,123.221,76.594z"/>
	<path d="M128.555,75.49c0-0.684-0.01-1.271-0.043-1.811h0.832l0.043,1.15h0.033c0.236-0.779,0.82-1.271,1.457-1.271
		c0.098,0,0.174,0.012,0.26,0.025v0.994c-0.098-0.023-0.193-0.023-0.324-0.023c-0.67,0-1.145,0.551-1.275,1.344
		c-0.021,0.143-0.031,0.324-0.031,0.49v3.096h-0.951V75.49z"/>
	<path d="M135.707,78.092c0,0.504,0.021,0.996,0.074,1.393h-0.854l-0.074-0.732h-0.033c-0.291,0.457-0.854,0.863-1.6,0.863
		c-1.059,0-1.598-0.826-1.598-1.666c0-1.404,1.123-2.172,3.143-2.16V75.67c0-0.467-0.119-1.344-1.188-1.332
		c-0.498,0-1.006,0.156-1.373,0.432l-0.215-0.707c0.432-0.299,1.068-0.504,1.729-0.504c1.598,0,1.988,1.211,1.988,2.363V78.092z
		 M134.787,76.521c-1.037-0.023-2.215,0.18-2.215,1.307c0,0.697,0.412,1.008,0.887,1.008c0.691,0,1.135-0.479,1.285-0.971
		c0.033-0.121,0.043-0.24,0.043-0.336V76.521z"/>
	<path d="M138.34,72.287v1.393h1.361v0.803h-1.361v3.131c0,0.719,0.184,1.127,0.713,1.127c0.26,0,0.41-0.023,0.551-0.072
		l0.043,0.805c-0.184,0.07-0.475,0.143-0.842,0.143c-0.443,0-0.799-0.168-1.025-0.443c-0.26-0.324-0.367-0.84-0.367-1.523v-3.166
		h-0.811V73.68h0.811V72.6L138.34,72.287z"/>
	<path d="M145.438,76.533c0,2.146-1.352,3.082-2.604,3.082c-1.404,0-2.506-1.15-2.506-2.986c0-1.93,1.154-3.07,2.592-3.07
		C144.422,73.559,145.438,74.77,145.438,76.533z M141.299,76.594c0,1.271,0.648,2.23,1.578,2.23c0.908,0,1.588-0.947,1.588-2.254
		c0-0.984-0.443-2.219-1.566-2.219C141.785,74.352,141.299,75.502,141.299,76.594z M144.303,71.172l-1.318,1.715h-0.67l0.941-1.715
		H144.303z"/>
	<path d="M146.635,75.49c0-0.684-0.012-1.271-0.043-1.811h0.83l0.045,1.15h0.031c0.238-0.779,0.822-1.271,1.459-1.271
		c0.098,0,0.172,0.012,0.26,0.025v0.994c-0.098-0.023-0.195-0.023-0.324-0.023c-0.67,0-1.146,0.551-1.275,1.344
		c-0.021,0.143-0.033,0.324-0.033,0.49v3.096h-0.949V75.49z"/>
	<path d="M151.268,72.049c0,0.359-0.227,0.646-0.605,0.646c-0.346,0-0.572-0.287-0.572-0.646c0-0.361,0.238-0.66,0.594-0.66
		C151.029,71.389,151.268,71.676,151.268,72.049z M150.209,79.484V73.68h0.951v5.805H150.209z"/>
	<path d="M157.469,76.533c0,2.146-1.352,3.082-2.604,3.082c-1.406,0-2.508-1.15-2.508-2.986c0-1.93,1.156-3.07,2.594-3.07
		C156.453,73.559,157.469,74.77,157.469,76.533z M153.33,76.594c0,1.271,0.648,2.23,1.578,2.23c0.906,0,1.588-0.947,1.588-2.254
		c0-0.984-0.443-2.219-1.566-2.219C153.816,74.352,153.33,75.502,153.33,76.594z"/>
	<path d="M160.986,79.484V71.4h1.037l2.324,4.09c0.529,0.947,0.961,1.799,1.295,2.627l0.033-0.012
		c-0.086-1.08-0.107-2.064-0.107-3.322V71.4h0.885v8.084h-0.949l-2.312-4.102c-0.508-0.9-0.994-1.824-1.352-2.699l-0.031,0.012
		c0.055,1.02,0.064,1.992,0.064,3.334v3.455H160.986z"/>
	<path d="M171.734,78.092c0,0.504,0.021,0.996,0.074,1.393h-0.852l-0.076-0.732h-0.033c-0.291,0.457-0.854,0.863-1.598,0.863
		c-1.059,0-1.6-0.826-1.6-1.666c0-1.404,1.123-2.172,3.145-2.16V75.67c0-0.467-0.119-1.344-1.189-1.332
		c-0.496,0-1.004,0.156-1.371,0.432l-0.217-0.707c0.432-0.299,1.07-0.504,1.729-0.504c1.6,0,1.988,1.211,1.988,2.363V78.092z
		 M170.816,76.521c-1.037-0.023-2.215,0.18-2.215,1.307c0,0.697,0.41,1.008,0.885,1.008c0.691,0,1.135-0.479,1.285-0.971
		c0.033-0.121,0.045-0.24,0.045-0.336V76.521z"/>
	<path d="M176.994,79.279c-0.25,0.133-0.801,0.336-1.502,0.336c-1.578,0-2.604-1.188-2.604-2.961c0-1.787,1.102-3.096,2.809-3.096
		c0.562,0,1.059,0.156,1.318,0.312l-0.217,0.803c-0.227-0.131-0.584-0.275-1.102-0.275c-1.199,0-1.848,0.996-1.848,2.195
		c0,1.344,0.777,2.17,1.814,2.17c0.541,0,0.896-0.143,1.168-0.275L176.994,79.279z"/>
	<path d="M179.164,72.049c0,0.359-0.227,0.646-0.605,0.646c-0.346,0-0.572-0.287-0.572-0.646c0-0.361,0.236-0.66,0.594-0.66
		C178.926,71.389,179.164,71.676,179.164,72.049z M178.105,79.484V73.68h0.949v5.805H178.105z"/>
	<path d="M185.363,76.533c0,2.146-1.35,3.082-2.604,3.082c-1.404,0-2.506-1.15-2.506-2.986c0-1.93,1.156-3.07,2.594-3.07
		C184.348,73.559,185.363,74.77,185.363,76.533z M181.227,76.594c0,1.271,0.648,2.23,1.576,2.23c0.908,0,1.59-0.947,1.59-2.254
		c0-0.984-0.443-2.219-1.568-2.219C181.713,74.352,181.227,75.502,181.227,76.594z"/>
	<path d="M186.561,75.25c0-0.611-0.01-1.092-0.043-1.57h0.844l0.053,0.959h0.021c0.26-0.539,0.865-1.08,1.729-1.08
		c0.725,0,1.848,0.48,1.848,2.471v3.455h-0.949v-3.346c0-0.936-0.314-1.717-1.211-1.717c-0.615,0-1.102,0.492-1.275,1.08
		c-0.043,0.133-0.064,0.312-0.064,0.492v3.49h-0.951V75.25z"/>
	<path d="M196.229,78.092c0,0.504,0.021,0.996,0.074,1.393h-0.852l-0.076-0.732h-0.033c-0.291,0.457-0.854,0.863-1.598,0.863
		c-1.059,0-1.6-0.826-1.6-1.666c0-1.404,1.123-2.172,3.145-2.16V75.67c0-0.467-0.119-1.344-1.189-1.332
		c-0.496,0-1.004,0.156-1.371,0.432l-0.217-0.707c0.432-0.299,1.07-0.504,1.729-0.504c1.6,0,1.988,1.211,1.988,2.363V78.092z
		 M195.311,76.521c-1.037-0.023-2.215,0.18-2.215,1.307c0,0.697,0.41,1.008,0.885,1.008c0.691,0,1.135-0.479,1.285-0.971
		c0.033-0.121,0.045-0.24,0.045-0.336V76.521z"/>
	<path d="M197.76,70.969h0.951v8.516h-0.951V70.969z"/>
	<path d="M110.684,83.969v7.016c0,0.516,0.021,1.104,0.043,1.5h-0.844l-0.043-1.008h-0.031c-0.281,0.648-0.908,1.139-1.762,1.139
		c-1.264,0-2.246-1.188-2.246-2.949c-0.012-1.932,1.08-3.107,2.344-3.107c0.811,0,1.34,0.42,1.576,0.877h0.021v-3.467H110.684z
		 M109.742,89.041c0-0.131-0.01-0.311-0.043-0.443c-0.141-0.66-0.658-1.211-1.371-1.211c-0.982,0-1.566,0.959-1.566,2.23
		c0,1.176,0.529,2.146,1.545,2.146c0.637,0,1.221-0.479,1.393-1.258c0.033-0.145,0.043-0.289,0.043-0.457V89.041z"/>
	<path d="M112.799,89.773c0.021,1.428,0.832,2.016,1.793,2.016c0.682,0,1.102-0.133,1.447-0.301l0.174,0.756
		c-0.336,0.168-0.918,0.371-1.75,0.371c-1.609,0-2.572-1.188-2.572-2.938c0-1.752,0.93-3.119,2.453-3.119
		c1.717,0,2.16,1.656,2.16,2.723c0,0.217-0.01,0.373-0.031,0.492H112.799z M115.586,89.018c0.012-0.66-0.248-1.703-1.318-1.703
		c-0.973,0-1.383,0.973-1.459,1.703H115.586z"/>
	<path d="M119.99,84.4h0.951v7.207h3.111v0.877h-4.062V84.4z"/>
	<path d="M129.279,90.889c0,0.611,0.012,1.139,0.043,1.596h-0.842l-0.055-0.947h-0.021c-0.236,0.467-0.799,1.078-1.729,1.078
		c-0.82,0-1.803-0.516-1.803-2.543V86.68h0.949v3.201c0,1.104,0.314,1.859,1.168,1.859c0.637,0,1.08-0.492,1.252-0.971
		c0.055-0.145,0.088-0.336,0.088-0.541V86.68h0.949V90.889z"/>
	<path d="M130.262,91.873l2.355-3.418c0.236-0.324,0.453-0.602,0.691-0.912V87.52h-2.83v-0.84h3.975v0.658l-2.334,3.371
		c-0.227,0.324-0.432,0.623-0.67,0.912v0.023h3.047v0.84h-4.234V91.873z"/>
	<path d="M137.682,91.213c0.42,0.299,1.025,0.527,1.674,0.527c0.961,0,1.523-0.564,1.523-1.379c0-0.744-0.389-1.188-1.373-1.596
		c-1.188-0.479-1.922-1.176-1.922-2.303c0-1.26,0.939-2.195,2.355-2.195c0.734,0,1.285,0.193,1.598,0.396l-0.258,0.852
		c-0.229-0.156-0.715-0.383-1.373-0.383c-0.994,0-1.371,0.658-1.371,1.211c0,0.756,0.441,1.127,1.447,1.559
		c1.23,0.527,1.848,1.188,1.848,2.375c0,1.248-0.822,2.338-2.539,2.338c-0.703,0-1.469-0.24-1.859-0.527L137.682,91.213z"/>
	<path d="M145.025,84.172l-1.318,1.715h-0.67l0.951-1.715H145.025z M143.092,92.484V86.68h0.951v5.805H143.092z"/>
	<path d="M145.619,88.25c0-0.611-0.012-1.092-0.043-1.57h0.842l0.055,0.959h0.021c0.26-0.539,0.863-1.08,1.729-1.08
		c0.725,0,1.848,0.48,1.848,2.471v3.455h-0.951v-3.346c0-0.936-0.312-1.717-1.209-1.717c-0.617,0-1.104,0.492-1.275,1.08
		c-0.043,0.133-0.064,0.312-0.064,0.492v3.49h-0.951V88.25z"/>
	<path d="M155.34,92.279c-0.248,0.133-0.799,0.336-1.502,0.336c-1.576,0-2.604-1.188-2.604-2.961c0-1.787,1.102-3.096,2.809-3.096
		c0.562,0,1.059,0.156,1.318,0.312l-0.217,0.803c-0.227-0.131-0.582-0.275-1.102-0.275c-1.199,0-1.848,0.996-1.848,2.195
		c0,1.344,0.779,2.17,1.816,2.17c0.539,0,0.896-0.143,1.166-0.275L155.34,92.279z"/>
	<path d="M156.451,88.49c0-0.684-0.012-1.271-0.043-1.811h0.832l0.043,1.15h0.031c0.238-0.779,0.822-1.271,1.459-1.271
		c0.098,0,0.174,0.012,0.26,0.025v0.994c-0.098-0.023-0.195-0.023-0.324-0.023c-0.67,0-1.145,0.551-1.275,1.344
		c-0.021,0.143-0.031,0.324-0.031,0.49v3.096h-0.951V88.49z"/>
	<path d="M164.607,89.533c0,2.146-1.352,3.082-2.604,3.082c-1.406,0-2.508-1.15-2.508-2.986c0-1.93,1.156-3.07,2.594-3.07
		C163.592,86.559,164.607,87.77,164.607,89.533z M160.469,89.594c0,1.271,0.648,2.23,1.578,2.23c0.906,0,1.588-0.947,1.588-2.254
		c0-0.984-0.443-2.219-1.566-2.219C160.955,87.352,160.469,88.502,160.469,89.594z"/>
	<path d="M166.949,85.287v1.393h1.361v0.803h-1.361v3.131c0,0.719,0.184,1.127,0.713,1.127c0.26,0,0.41-0.023,0.551-0.072
		l0.043,0.805c-0.184,0.07-0.475,0.143-0.842,0.143c-0.443,0-0.801-0.168-1.027-0.443c-0.258-0.324-0.367-0.84-0.367-1.523v-3.166
		h-0.811V86.68h0.811V85.6L166.949,85.287z"/>
	<path d="M169.379,88.49c0-0.684-0.012-1.271-0.043-1.811h0.832l0.043,1.15h0.031c0.238-0.779,0.822-1.271,1.459-1.271
		c0.098,0,0.174,0.012,0.26,0.025v0.994c-0.098-0.023-0.195-0.023-0.324-0.023c-0.67,0-1.145,0.551-1.275,1.344
		c-0.021,0.143-0.031,0.324-0.031,0.49v3.096h-0.951V88.49z"/>
	<path d="M177.533,89.533c0,2.146-1.35,3.082-2.604,3.082c-1.404,0-2.506-1.15-2.506-2.986c0-1.93,1.156-3.07,2.594-3.07
		C176.518,86.559,177.533,87.77,177.533,89.533z M173.396,89.594c0,1.271,0.648,2.23,1.576,2.23c0.908,0,1.59-0.947,1.59-2.254
		c0-0.984-0.443-2.219-1.568-2.219C173.883,87.352,173.396,88.502,173.396,89.594z"/>
	<path d="M178.73,88.25c0-0.611-0.01-1.092-0.043-1.57h0.844l0.053,0.959h0.021c0.26-0.539,0.865-1.08,1.729-1.08
		c0.725,0,1.848,0.48,1.848,2.471v3.455h-0.949v-3.346c0-0.936-0.314-1.717-1.211-1.717c-0.615,0-1.102,0.492-1.275,1.08
		c-0.043,0.133-0.064,0.312-0.064,0.492v3.49h-0.951V88.25z"/>
</g>
<g>
	<g>
		<g id="XMLID_36_">
			<g>
				<path fill="#1F76B5" d="M63.301,98.9c0.306,0.746-0.094,4.82,0.34,5.348c0.168-0.207,0.142,0.066,0.452,0
					c0.032,0.385,0.412,0.418,0.396,0.848c0.938,0.043,5.083,0.08,6.029,0.115c-0.078,0.129-1.182,0.02-1.354,0.057
					c-0.803-0.014-3.988,0.008-4.676,0.113c-0.091,0.223-0.432,0.932-0.678,0.846c-0.123-0.008-0.025,0.201-0.058,0.287
					c-0.114-0.018-0.11-0.154-0.226-0.172c-0.218,0.814-0.146,3.479-0.17,4.496c-0.318-0.721,0.249-4.814-0.678-4.551
					c-0.216-0.264-0.354-0.557-0.453-0.793c-0.472-0.322-4.359-0.123-5.045-0.227c0.455-0.211,4.353-0.047,4.988-0.227
					c0.213-0.428,0.4-0.963,1.018-1.018C63.294,103.225,63.26,99.768,63.301,98.9z"/>
			</g>
			<g>
			</g>
		</g>
	</g>
	<g>
		<g id="XMLID_35_">
			<g>
				<path fill="#1F76B5" d="M63.47,105.855c-0.163-0.018-0.312-0.072-0.426-0.119c-0.272,0.053-1.536,1.455-1.808,1.652
					c0.085-0.227,1.477-1.508,1.632-1.787c-0.073-0.221-0.192-0.469,0.001-0.697c-0.237-0.311-1.777-1.828-2.061-2.139
					c0.36,0.152,1.963,2.029,2.293,2.061c-0.014-0.129,0.071-0.025,0.154-0.156c0.143,0.121,0.284,0.002,0.427,0.156
					c0.336-0.307,1.5-1.445,1.836-1.758c0.018,0.07-0.128,0.143-0.175,0.213c-0.278,0.271-1.364,1.371-1.563,1.643
					c0.045,0.105,0.171,0.467,0.058,0.523c-0.045,0.039,0.06,0.076,0.079,0.115c-0.047,0.035-0.092-0.014-0.137,0.021
					c0.204,0.354,1.485,1.584,1.827,1.941C65.25,107.387,63.698,105.447,63.47,105.855z"/>
			</g>
			<g>
			</g>
		</g>
	</g>
</g>
<g>
	<path fill="#1F76B5" d="M3.836,3.047v74.085h13.092c-1.164-2.041-1.83-4.4-1.83-6.92c0-7.719,6.26-13.977,13.98-13.977
		s13.979,6.258,13.979,13.977c0,2.52-0.664,4.879-1.829,6.92h33.174c-0.289-0.346-0.575-0.676-0.852-0.986
		c-7.25-8.111-16.478-15.443-28.371-19.467c-3.778-1.281-7.972-1.959-11.768-2.641c3.796-0.676,7.703-1.027,11.693-1.031
		c11.646-0.006,22.524,3.111,32.123,8.232c2.766,1.477,9.83,5.607,16.279,9.412V3.047H3.836z M12.894,65.859
		c-0.675-3.797-1.024-7.703-1.024-11.693c0-11.646,3.123-22.523,8.25-32.117c2.289-4.281,5.371-9.417,9.328-16.08l18.199,10.502
		c0,0-8.268,5.378-12.622,9.266c-8.114,7.245-15.455,16.467-19.487,28.357C14.257,57.873,13.574,62.064,12.894,65.859z
		 M17.184,58.367c1.312-3.625,2.958-7.186,4.951-10.642c5.812-10.094,13.949-17.959,23.18-23.713
		c4.119-2.568,9.354-5.479,16.107-9.275L71.953,32.92c0,0-9.85,0.532-15.563,1.729c-10.647,2.227-21.61,6.553-31.04,14.843
		C22.354,52.127,19.67,55.42,17.184,58.367z M84.848,59.531c0,0-8.785-4.488-14.326-6.326c-10.324-3.428-21.977-5.195-34.294-2.766
		c-3.917,0.771-7.891,2.27-11.521,3.57c2.955-2.477,6.17-4.729,9.627-6.716c10.1-5.801,21.088-8.514,31.959-8.848
		c4.854-0.148,10.84-0.037,18.588,0.075L84.848,59.531z"/>
	<g>
		<polyline fill-rule="evenodd" clip-rule="evenodd" points="28.127,81.338 28.127,92.543 31.863,92.543 31.863,84.607 
			39.799,92.543 43.068,92.543 43.068,81.338 39.332,81.338 39.346,89.305 31.359,81.338 28.127,81.338 		"/>
		<path d="M7.59,88.818c0,1.025,0.832,1.857,1.858,1.857h7.474v1.867h-9.37c-2.058,0-3.728-1.65-3.728-3.711v-7.494h3.76
			L7.59,88.818"/>
		<path d="M58.949,88.818c0,1.025,0.83,1.857,1.857,1.857h7.475v1.867H58.91c-2.059,0-3.729-1.65-3.729-3.711v-7.494h3.762
			L58.949,88.818"/>
		<path d="M83.689,86c-0.773,0-1.4-0.627-1.4-1.398c0-0.775,0.627-1.402,1.4-1.402l8.871,0.006v-1.867H81.816
			c-1.805,0-3.265,1.463-3.265,3.266s1.46,3.264,3.265,3.264l6.541,0.008c0.773,0,1.398,0.629,1.398,1.4
			c0,0.773-0.625,1.4-1.398,1.4h-8.871v1.867l10.742-0.006c1.805,0,3.266-1.461,3.266-3.266c0-1.801-1.461-3.264-3.266-3.264
			L83.689,86"/>
	</g>
</g>
<g>
	<path d="M76.479,106.487c0,0.14-0.027,0.269-0.081,0.389s-0.126,0.227-0.218,0.318s-0.198,0.163-0.318,0.213
		c-0.12,0.051-0.25,0.076-0.389,0.076h-3.025v-0.892h3.025c0.031,0,0.057-0.011,0.076-0.033c0.019-0.022,0.028-0.046,0.028-0.071
		c0-0.051-0.019-0.085-0.058-0.104l-2.58-1.498c-0.15-0.089-0.271-0.209-0.359-0.36c-0.089-0.152-0.133-0.319-0.133-0.503
		c0-0.139,0.026-0.271,0.08-0.394s0.125-0.23,0.213-0.322c0.09-0.092,0.195-0.165,0.318-0.219s0.254-0.08,0.394-0.08h2.571v0.892
		h-2.571c-0.032,0-0.059,0.013-0.081,0.037c-0.021,0.025-0.033,0.055-0.033,0.086c0,0.025,0.02,0.057,0.058,0.095l2.579,1.499
		c0.146,0.088,0.266,0.208,0.361,0.36C76.431,106.127,76.479,106.298,76.479,106.487z"/>
	<path d="M77.027,102.105v-0.892h0.901v0.892H77.027z M77.027,107.483v-4.477h0.901v4.477H77.027z"/>
	<path d="M79.607,103.898c-0.076,0-0.113,0.037-0.113,0.113v3.472h-0.893v-3.472c0-0.139,0.027-0.269,0.081-0.389
		s0.125-0.226,0.214-0.317c0.088-0.092,0.194-0.165,0.317-0.219c0.124-0.054,0.255-0.08,0.394-0.08h2.57v0.892H79.607z"/>
	<path d="M82.738,102.105v-0.892h0.9v0.892H82.738z M82.738,107.483v-4.477h0.9v4.477H82.738z"/>
	<path d="M88.263,106.867c-0.054,0.12-0.126,0.226-0.218,0.317s-0.199,0.165-0.322,0.218c-0.124,0.055-0.256,0.081-0.395,0.081
		h-2.011c-0.284,0-0.522-0.097-0.716-0.289c-0.193-0.193-0.289-0.432-0.289-0.717v-3.471h0.891v3.471
		c0,0.032,0.012,0.059,0.033,0.081c0.022,0.022,0.049,0.033,0.081,0.033h2.011c0.031,0,0.059-0.011,0.081-0.033
		s0.033-0.049,0.033-0.081v-3.471h0.901v3.471C88.344,106.617,88.316,106.747,88.263,106.867z"/>
	<path d="M92.82,106.487c0,0.14-0.027,0.269-0.081,0.389s-0.126,0.227-0.218,0.318s-0.198,0.163-0.318,0.213
		c-0.12,0.051-0.25,0.076-0.389,0.076h-3.025v-0.892h3.025c0.031,0,0.057-0.011,0.076-0.033c0.019-0.022,0.028-0.046,0.028-0.071
		c0-0.051-0.019-0.085-0.058-0.104l-2.58-1.498c-0.15-0.089-0.271-0.209-0.359-0.36c-0.089-0.152-0.133-0.319-0.133-0.503
		c0-0.139,0.026-0.271,0.08-0.394s0.125-0.23,0.213-0.322c0.09-0.092,0.195-0.165,0.318-0.219s0.254-0.08,0.394-0.08h2.571v0.892
		h-2.571c-0.032,0-0.059,0.013-0.081,0.037c-0.021,0.025-0.033,0.055-0.033,0.086c0,0.025,0.02,0.057,0.058,0.095l2.579,1.499
		c0.146,0.088,0.266,0.208,0.361,0.36C92.772,106.127,92.82,106.298,92.82,106.487z"/>
</g>
<rect x="3.837" y="96.688" width="89.657" height="0.312"/>
</svg>
